<svg width="40" height="40" viewBox="0 0 40 40" fill="none" xmlns="http://www.w3.org/2000/svg">
<path d="M30.1665 18.077C30.5118 18.6749 30.5118 19.4117 30.1665 20.0096L23.6769 31.2491C22.9364 32.5316 23.862 34.1347 25.343 34.1347C26.0303 34.1347 26.6654 33.768 27.0091 33.1728L31.2731 25.788C32.017 24.4996 33.8768 24.4996 34.6207 25.788L39.7382 34.651C40.4821 35.9394 39.5522 37.5499 38.0643 37.5499H31.0256C31.0255 37.5499 31.0254 37.55 31.0254 37.5501C31.0254 37.5503 31.0253 37.5504 31.0251 37.5504H14.2627L14.2624 37.5501H13.1811C12.3486 37.5501 11.8283 36.649 12.2445 35.9281L21.9169 19.1764C22.2621 18.5785 22.2621 17.8418 21.9169 17.2438L21.6738 16.8228C20.9299 15.5344 19.0701 15.5344 18.3261 16.8228L6.91645 36.5834C6.5712 37.1814 5.93313 37.5497 5.24262 37.5497H1.93566C0.447809 37.5497 -0.482099 35.9392 0.261826 34.6508L18.3252 3.3667C19.0691 2.07829 20.9289 2.07829 21.6728 3.3667L30.1665 18.077Z" fill="#EDEDED"/>
</svg>
